<?xml version="1.0" encoding="utf-8"?>
<!-- Generator: Adobe Illustrator 21.0.2, SVG Export Plug-In . SVG Version: 6.00 Build 0)  -->
<svg version="1.1" id="Calque_1" xmlns="http://www.w3.org/2000/svg" xmlns:xlink="http://www.w3.org/1999/xlink" x="0px" y="0px"
	 viewBox="0 0 50 50" style="enable-background:new 0 0 50 50;" xml:space="preserve">
<style type="text/css">
	.st0{fill:#131127;}
</style>
<g transform="translate(0,-952.36218)">
	<path class="st0" d="M50,977.4c0-0.4-0.3-1-0.5-1.3l-15.4-16.3c-0.7-0.7-1.9-0.8-2.7-0.1c-0.7,0.7-0.8,2-0.1,2.7l12.3,13.1H1.9
		c-1.1,0-1.9,0.9-1.9,1.9s0.9,1.9,1.9,1.9h41.7l-12.3,13.1c-0.7,0.7-0.6,2,0.1,2.7c0.8,0.7,2,0.7,2.7-0.1l15.4-16.3
		C49.9,978.2,50,977.8,50,977.4L50,977.4z"/>
</g>
</svg>
